<svg viewBox="0 0 1440 537" fill="none" xmlns="http://www.w3.org/2000/svg">
<path d="M1469.14 93.8516C1496.79 128.548 1513 170.553 1513 215.812C1513 335.001 1400.58 431.623 1262.94 431.623C1194.89 431.623 1133.22 408.006 1088.24 369.721C1070.39 396.229 1038.22 413.92 1001.5 413.92C982.784 413.92 965.253 409.324 950.194 401.309C931.692 448.174 885.741 481.361 831.981 481.361C809.645 481.361 788.658 475.631 770.426 465.572C742.187 498.777 698.095 520.14 648.549 520.14C585.723 520.14 531.668 485.793 507.584 436.505C496.481 440.977 484.441 443.426 471.863 443.426C450.622 443.426 430.917 436.443 414.667 424.523C378.382 491.288 304.508 537 219.275 537C100.122 537 3.16621 447.665 0.0761719 336.362H0V0H1469.14V93.8516Z" fill="#A6F3FF"/>
</svg>
